<?xml version="1.0" encoding="UTF-8" standalone="no"?>
<!-- Created with Inkscape (http://www.inkscape.org/) -->

<svg
   xmlns:dc="http://purl.org/dc/elements/1.1/"
   xmlns:cc="http://creativecommons.org/ns#"
   xmlns:rdf="http://www.w3.org/1999/02/22-rdf-syntax-ns#"
   xmlns:svg="http://www.w3.org/2000/svg"
   xmlns="http://www.w3.org/2000/svg"
   xmlns:sodipodi="http://sodipodi.sourceforge.net/DTD/sodipodi-0.dtd"
   xmlns:inkscape="http://www.inkscape.org/namespaces/inkscape"
   width="30"
   height="30"
   viewBox="0 0 30 30"
   id="svg4333"
   version="1.1"
   inkscape:version="0.91 r13725"
   sodipodi:docname="grass.svg">
  <defs
     id="defs4335" />
  <sodipodi:namedview
     id="base"
     pagecolor="#ffffff"
     bordercolor="#666666"
     borderopacity="1.0"
     inkscape:pageopacity="0.0"
     inkscape:pageshadow="2"
     inkscape:zoom="5.6"
     inkscape:cx="35.445844"
     inkscape:cy="21.104888"
     inkscape:document-units="px"
     inkscape:current-layer="layer1"
     showgrid="false"
     units="px"
     inkscape:window-width="1366"
     inkscape:window-height="712"
     inkscape:window-x="0"
     inkscape:window-y="27"
     inkscape:window-maximized="1" />
  <metadata
     id="metadata4338">
    <rdf:RDF>
      <cc:Work
         rdf:about="">
        <dc:format>image/svg+xml</dc:format>
        <dc:type
           rdf:resource="http://purl.org/dc/dcmitype/StillImage" />
        <dc:title></dc:title>
      </cc:Work>
    </rdf:RDF>
  </metadata>
  <g
     inkscape:label="Layer 1"
     inkscape:groupmode="layer"
     id="layer1"
     transform="translate(0,-1022.3622)">
    <g
       transform="translate(-92.960046,733.21817)"
       id="g8690">
      <rect
         y="291.46481"
         x="95.206871"
         height="25.001274"
         width="25.506351"
         id="rect7548-2-9"
         style="opacity:0.83800001;fill:#1cf63e;fill-opacity:1;fill-rule:nonzero;stroke:none;stroke-width:0.80800003;stroke-linecap:square;stroke-linejoin:miter;stroke-miterlimit:4;stroke-dasharray:none;stroke-opacity:1" />
      <path
         sodipodi:nodetypes="cacacacacacacc"
         inkscape:connector-curvature="0"
         id="path5396-7-6-8-0"
         d="m 102.31964,301.70391 c 0,0 -1.262,-3.27978 -2.344407,-4.80632 -0.9346,-1.31809 -3.53976,-3.69709 -3.53976,-3.69709 0,0 3.776087,1.94102 5.188007,3.18498 1.19149,1.04976 2.65756,3.51094 2.65756,3.51094 0,0 0.86915,-1.50227 1.04099,-2.29044 0.23422,-1.0744 -0.0287,-3.25526 -0.0287,-3.25526 0,0 2.90345,2.72791 2.78391,4.27225 -0.0639,0.82622 -1.83485,2.17719 -1.83485,2.17719 0,0 2.61931,-1.2309 4.14269,-1.25505 0.92294,-0.0146 2.564,0.67994 2.564,0.67994 0,0 -1.09711,0.003 -1.5813,0.14652 -1.09354,0.32475 -2.72111,1.53773 -2.72111,1.53773 -4.367,0.0571 -3.35143,0.7982 -6.32707,-0.20539 z"
         style="fill:#16b62f;fill-opacity:1;fill-rule:evenodd;stroke:#057805;stroke-width:0.80800003;stroke-linecap:butt;stroke-linejoin:miter;stroke-miterlimit:4;stroke-dasharray:none;stroke-opacity:1" />
      <path
         sodipodi:nodetypes="cacacacacacacc"
         inkscape:connector-curvature="0"
         id="path5396-9-6-9-4-8"
         d="m 114.13296,313.44599 c 0,0 1.26201,-3.27978 2.34441,-4.80631 0.9346,-1.3181 3.53977,-3.69709 3.53977,-3.69709 0,0 -3.77609,1.94101 -5.188,3.18499 -1.19149,1.04975 -2.65756,3.51093 -2.65756,3.51093 0,0 -0.86915,-1.50227 -1.04099,-2.29044 -0.23422,-1.07439 0.0287,-3.25526 0.0287,-3.25526 0,0 -2.90345,2.72791 -2.7839,4.27224 0.0639,0.82622 1.83485,2.17719 1.83485,2.17719 0,0 -2.61932,-1.2309 -4.1427,-1.25504 -0.92293,-0.0146 -2.56399,0.67993 -2.56399,0.67993 0,0 1.09711,0.003 1.5813,0.14653 1.09353,0.32474 2.7211,1.53773 2.7211,1.53773 4.367,0.0571 3.35144,0.7982 6.32707,-0.2054 z"
         style="fill:#16b62f;fill-opacity:1;fill-rule:evenodd;stroke:#057805;stroke-width:0.80800003;stroke-linecap:butt;stroke-linejoin:miter;stroke-miterlimit:4;stroke-dasharray:none;stroke-opacity:1" />
      <g
         transform="matrix(0.46262958,0,0,0.41467224,49.970512,194.55221)"
         id="g5344-5-7-1">
        <path
           style="fill:#f59995;fill-opacity:1;fill-rule:evenodd;stroke:#f06060;stroke-width:0.5;stroke-linecap:butt;stroke-linejoin:miter;stroke-miterlimit:4;stroke-dasharray:none;stroke-opacity:1"
           d="m 110.06256,269.40147 c 0,0 -1.08884,-2.2078 -0.42475,-2.94409 0.48693,-0.53988 1.46087,0.19913 2.17932,0.0878 0.28671,-0.0444 0.57466,-0.45421 0.81827,-0.29664 0.92655,0.59927 0.24736,3.30113 0.24736,3.30113 0,0 1.26446,-1.24995 2.06637,-1.23296 1.24158,0.0263 3.38645,0.83085 3.11558,2.04281 -0.19889,0.88994 -1.84084,0.10339 -2.7087,0.38336 -0.56846,0.18338 -1.5865,0.83304 -1.5865,0.83304 0,0 1.83695,0.41061 2.11038,1.16643 0.39276,1.08568 -0.11408,3.06939 -1.25778,3.22717 -0.67536,0.0932 -0.77801,-1.12381 -1.23094,-1.63336 -0.49268,-0.55427 -1.60746,-1.53807 -1.60746,-1.53807 0,0 -1.02361,1.70224 -1.68731,2.43252 -0.44063,0.48483 -0.87207,1.45303 -1.50084,1.26903 -0.9274,-0.2714 -1.14674,-1.84854 -0.85532,-2.76984 0.2718,-0.85926 2.13824,-1.65459 2.13824,-1.65459 0,0 -1.80572,-1.04048 -2.81183,-1.12862 -0.47853,-0.0419 -1.10931,0.67043 -1.41035,0.29609 -0.63323,-0.78744 0.32715,-2.34111 1.24486,-2.764 0.99701,-0.45943 3.1614,0.9228 3.1614,0.92281 z"
           id="path5340-9-2-3"
           inkscape:connector-curvature="0"
           sodipodi:nodetypes="caaacaaacaaacaaacaaacc" />
        <ellipse
           style="fill:#f9b53a;fill-opacity:1;stroke:#f66a0d;stroke-width:0.43710649;stroke-linecap:square;stroke-linejoin:miter;stroke-miterlimit:4;stroke-dasharray:none;stroke-opacity:1"
           id="path5338-4-40-1"
           cx="111.65433"
           cy="271.13068"
           rx="1.8774828"
           ry="1.6402637" />
      </g>
      <g
         transform="matrix(0.46262958,0,0,0.41467224,64.024572,183.37136)"
         id="g5344-5-2-6-1">
        <path
           style="fill:#f59995;fill-opacity:1;fill-rule:evenodd;stroke:#f06060;stroke-width:0.5;stroke-linecap:butt;stroke-linejoin:miter;stroke-miterlimit:4;stroke-dasharray:none;stroke-opacity:1"
           d="m 110.06256,269.40147 c 0,0 -1.08884,-2.2078 -0.42475,-2.94409 0.48693,-0.53988 1.46087,0.19913 2.17932,0.0878 0.28671,-0.0444 0.57466,-0.45421 0.81827,-0.29664 0.92655,0.59927 0.24736,3.30113 0.24736,3.30113 0,0 1.26446,-1.24995 2.06637,-1.23296 1.24158,0.0263 3.38645,0.83085 3.11558,2.04281 -0.19889,0.88994 -1.84084,0.10339 -2.7087,0.38336 -0.56846,0.18338 -1.5865,0.83304 -1.5865,0.83304 0,0 1.83695,0.41061 2.11038,1.16643 0.39276,1.08568 -0.11408,3.06939 -1.25778,3.22717 -0.67536,0.0932 -0.77801,-1.12381 -1.23094,-1.63336 -0.49268,-0.55427 -1.60746,-1.53807 -1.60746,-1.53807 0,0 -1.02361,1.70224 -1.68731,2.43252 -0.44063,0.48483 -0.87207,1.45303 -1.50084,1.26903 -0.9274,-0.2714 -1.14674,-1.84854 -0.85532,-2.76984 0.2718,-0.85926 2.13824,-1.65459 2.13824,-1.65459 0,0 -1.80572,-1.04048 -2.81183,-1.12862 -0.47853,-0.0419 -1.10931,0.67043 -1.41035,0.29609 -0.63323,-0.78744 0.32715,-2.34111 1.24486,-2.764 0.99701,-0.45943 3.1614,0.9228 3.1614,0.92281 z"
           id="path5340-9-5-2-0"
           inkscape:connector-curvature="0"
           sodipodi:nodetypes="caaacaaacaaacaaacaaacc" />
        <ellipse
           style="fill:#f9b53a;fill-opacity:1;stroke:#f66a0d;stroke-width:0.43710649;stroke-linecap:square;stroke-linejoin:miter;stroke-miterlimit:4;stroke-dasharray:none;stroke-opacity:1"
           id="path5338-4-4-9-3"
           cx="111.65433"
           cy="271.13068"
           rx="1.8774828"
           ry="1.6402637" />
      </g>
    </g>
  </g>
</svg>
