<?xml version="1.0" encoding="UTF-8" standalone="no"?>
<!-- Created with Inkscape (http://www.inkscape.org/) -->

<svg
   xmlns:dc="http://purl.org/dc/elements/1.1/"
   xmlns:cc="http://creativecommons.org/ns#"
   xmlns:rdf="http://www.w3.org/1999/02/22-rdf-syntax-ns#"
   xmlns:svg="http://www.w3.org/2000/svg"
   xmlns="http://www.w3.org/2000/svg"
   xmlns:sodipodi="http://sodipodi.sourceforge.net/DTD/sodipodi-0.dtd"
   xmlns:inkscape="http://www.inkscape.org/namespaces/inkscape"
   width="40"
   height="80"
   viewBox="0 0 40 80.000002"
   id="svg4201"
   version="1.1"
   inkscape:version="0.91 r13725"
   sodipodi:docname="ratpoison.svg">
  <defs
     id="defs4203" />
  <sodipodi:namedview
     id="base"
     pagecolor="#ffffff"
     bordercolor="#666666"
     borderopacity="1.0"
     inkscape:pageopacity="0.0"
     inkscape:pageshadow="2"
     inkscape:zoom="15.839192"
     inkscape:cx="6.7606881"
     inkscape:cy="31.029903"
     inkscape:document-units="px"
     inkscape:current-layer="flowRoot4831"
     showgrid="false"
     units="px"
     inkscape:window-width="1366"
     inkscape:window-height="712"
     inkscape:window-x="0"
     inkscape:window-y="27"
     inkscape:window-maximized="1" />
  <metadata
     id="metadata4206">
    <rdf:RDF>
      <cc:Work
         rdf:about="">
        <dc:format>image/svg+xml</dc:format>
        <dc:type
           rdf:resource="http://purl.org/dc/dcmitype/StillImage" />
        <dc:title />
      </cc:Work>
    </rdf:RDF>
  </metadata>
  <g
     inkscape:label="Layer 1"
     inkscape:groupmode="layer"
     id="layer1"
     transform="translate(0,-972.3622)">
    <path
       style="fill:#009100;fill-rule:evenodd;stroke:#000000;stroke-width:1px;stroke-linecap:butt;stroke-linejoin:miter;stroke-opacity:1"
       d="m 18.033155,988.44595 0,15.00005 c 0,0 -19.2185901,34.5 -5,34.5 l 15,0 c 17.35307,0 -5,-34.5 -5,-34.5 l 0,-15.00005 2,0 0,-4.5 -9,0 0,4.5 z"
       id="path4819"
       inkscape:connector-curvature="0"
       sodipodi:nodetypes="ccssccccccc" />
    <path
       style="fill:#ff4141;fill-rule:evenodd;stroke:#000000;stroke-width:1px;stroke-linecap:butt;stroke-linejoin:miter;stroke-opacity:1"
       d="m 13.157175,1013.9109 c 0,0 0.22419,1.347 7.82782,1.347 7.60363,0 7.81923,-1.4548 7.81923,-1.4548 l 5.16644,14.2188 c 0,0 -2.14287,2.7902 -12.41073,2.7902 -10.37944,0 -13.0803601,-2.8572 -13.0803601,-2.8572 z"
       id="path4821"
       inkscape:connector-curvature="0"
       sodipodi:nodetypes="czccscc" />
    <g
       transform="matrix(0.42841375,0,0,0.43797262,-21.796615,634.82464)"
       style="font-style:normal;font-weight:normal;font-size:40px;line-height:125%;font-family:sans-serif;letter-spacing:0px;word-spacing:0px;fill:#000000;fill-opacity:1;stroke:none;stroke-width:1px;stroke-linecap:butt;stroke-linejoin:miter;stroke-opacity:1"
       id="flowRoot4831">
      <path
         d="m 103.47406,884.79313 -0.36,0.91999 q -0.68,0.24 -1.84,0.24 -1.04,0 -1.879997,-0.24 l -0.36,-0.91999 -2.520001,-1.20001 q -0.32,-2 -0.96,-3.12 -0.599999,-1.15999 -0.599999,-3.07999 0,-2.52001 1.8,-3.96 1.799999,-1.44001 4.519997,-1.44001 2.72,0 4.48,1.48 1.8,1.44001 1.8,3.92001 0,1.52 -0.64,2.92 -0.64,1.36 -0.92,3.27999 l -2.52,1.20001 z m 1.2,0.39999 -0.44,1.8 -1.12,0.96 q -0.6,1.12 -1.88,1.12 -1.319998,0 -1.879998,-1.12 l -1.12,-0.96 -0.44,-1.8 0.64,-0.15999 q 0.48,1.19999 0.92,1.59999 0.480001,0.40001 1.799998,0.40001 1.44,0 1.88,-0.36 0.48,-0.4 1,-1.64 l 0.64,0.15999 z m -3.32,7.44 q 1.36,-0.8 4.84,-2.19999 1.92,-2.12 2.72,-2.12 0.72,0 0.72,0.96 0,0.35999 -0.12,1.16 0.8,1 0.8,1.43999 0,0.80001 -0.88,0.80001 -0.48,0 -1.8,-0.88 -1.56,0.27999 -4.72,1.83999 0.72,0.40001 1.96,1.24 1.28,0.80001 2.16,1.32 3.28,0.36001 3.28,1.64 0,0.8 -1.76,1.12 -0.88,1 -1.36,1 -0.6,0 -1.48,-2.2 -2.52,-2.12 -4.52,-3.16 -2.399998,1.36 -4.559998,3.32001 -0.28,2.03999 -1.239999,2.03999 -0.600001,0 -1.36,-1.15999 -1.840001,0 -1.840001,-1 0,-0.60001 0.560001,-0.96001 0.599999,-0.36 1.119999,-0.48 0.56,-0.12 1.56,-0.24 0.2,-0.04 0.320001,-0.04 1.36,-1 3.879999,-2.44 -2.92,-1.47999 -4.92,-1.83999 -0.92,0.79999 -1.52,0.79999 -0.96,0 -0.96,-0.76 0,-0.27999 0.800001,-1.39999 -0.2,-0.60001 -0.2,-1.12 0,-1.04 0.84,-1.04 0.959999,0 2.679999,2.16 1.680001,0.6 4.999998,2.19999 z m -4.199998,-12.31999 q 0,1.72 1.48,1.72 1.519998,0 1.519998,-1.84001 0,-1.51999 -1.479997,-1.51999 -1.520001,0 -1.520001,1.64 z m 5.319998,0 q 0,1.72 1.52,1.72 1.48,0 1.48,-1.84001 0,-1.51999 -1.44,-1.51999 -1.56,0 -1.56,1.64 z m -1.2,1.48 q -0.24,0.36 -0.48,0.67999 -0.2,0.28 -0.32,0.44001 -0.12,0.12 -0.2,0.27999 -0.08,0.16 -0.08,0.28 0,0.6 0.64,0.6 0.12,0 0.44,-0.15999 0.32,0.15999 0.44,0.15999 0.68,0 0.68,-0.6 0,-0.15999 -0.16,-0.4 -0.16,-0.24 -0.48,-0.6 -0.28,-0.4 -0.48,-0.67999 z"
         style="font-style:normal;font-variant:normal;font-weight:normal;font-stretch:normal;font-family:FreeSerif;-inkscape-font-specification:FreeSerif"
         id="path4140" />
    </g>
  </g>
</svg>
